<svg width="139" height="186" viewBox="0 0 139 186" fill="none" xmlns="http://www.w3.org/2000/svg">
<g clip-path="url(#clip0_1_5)">
<path d="M69.501 3C106.229 3 136.002 32.7744 136.002 69.502L135.99 70.7363C135.758 83.4687 131.946 95.3354 125.516 105.36L125.456 105.453L125.39 105.541L117.359 116.238L115.283 119.004L112.839 116.559L101.538 105.259L99.4287 103.15L101.525 101.029C109.565 92.8936 114.525 81.7216 114.525 69.3848L114.511 68.2227C113.894 43.8933 93.9787 24.3594 69.501 24.3594C44.6347 24.3594 24.4766 44.5184 24.4766 69.3848L24.4912 70.5469C25.108 94.8758 45.0235 114.409 69.501 114.409C78.4546 114.409 86.7891 111.797 93.7969 107.296L95.8301 105.99L97.5391 107.699L110.683 120.842L112.523 122.682L110.961 124.764L71.9004 176.806L69.501 180.003L67.1016 176.806L13.6123 105.541L13.5459 105.453L13.4863 105.36C6.84882 95.0122 3.00008 82.7015 3 69.502C3 32.7744 32.7733 3 69.501 3ZM69.501 28.2295C92.2301 28.2295 110.655 46.6559 110.655 69.3848L110.642 70.4473C110.078 92.6848 91.8746 110.539 69.501 110.539C46.7722 110.539 28.3472 92.1133 28.3467 69.3848L28.3535 68.6162C28.4241 64.7836 29.0218 61.0764 30.0732 57.5645L30.7139 55.4248H52.8203V87.7744H56.2734V55.4248H71.9355V87.7744H74.9688V72.0205H91.5635V69.8281H74.9688V55.4248H95.3447V52.6025H31.5352L34.3037 48.0449C41.5165 36.1715 54.5803 28.2295 69.501 28.2295Z" fill="#0453DE" stroke="white" stroke-width="6"/>
</g>
<defs>
<clipPath id="clip0_1_5">
<rect width="139" height="186" fill="white"/>
</clipPath>
</defs>
</svg>
