<?xml version="1.0" standalone="no"?>
<!DOCTYPE svg PUBLIC "-//W3C//DTD SVG 20010904//EN"
 "http://www.w3.org/TR/2001/REC-SVG-20010904/DTD/svg10.dtd">
<svg version="1.0" xmlns="http://www.w3.org/2000/svg"
 width="52.000000pt" height="68.000000pt" viewBox="0 0 52.000000 68.000000"
 preserveAspectRatio="xMidYMid meet">

<g transform="translate(0.000000,68.000000) scale(0.100000,-0.100000)"
fill="#000000" stroke="none">
<path d="M190 671 c-85 -28 -151 -93 -174 -172 -33 -109 -16 -155 124 -341 61
-82 115 -148 119 -148 4 0 42 44 84 99 l76 99 -27 25 c-26 25 -29 26 -67 12
-22 -8 -49 -14 -60 -15 -66 -1 -150 51 -182 114 -20 39 -20 123 0 162 38 73
132 123 206 109 138 -26 208 -169 138 -287 -26 -45 -26 -46 -7 -63 24 -22 41
-10 73 49 28 54 30 165 3 216 -25 49 -74 98 -119 121 -42 22 -148 33 -187 20z"/>
<path d="M195 561 c-11 -5 -29 -18 -39 -30 l-19 -21 121 0 c115 0 122 -1 122
-20 0 -17 -7 -20 -45 -20 -33 0 -45 -4 -45 -15 0 -10 11 -15 35 -15 28 0 35
-4 35 -20 0 -16 -7 -20 -36 -20 -34 0 -36 -1 -32 -30 3 -17 0 -31 -8 -34 -20
-8 -24 4 -24 71 0 56 -2 63 -20 63 -18 0 -20 -7 -20 -64 0 -55 -3 -64 -20 -69
-19 -5 -20 0 -20 64 l0 69 -35 0 c-35 0 -35 -1 -35 -42 0 -150 200 -204 281
-76 15 26 19 45 16 86 -3 45 -9 59 -40 90 -32 32 -43 36 -94 39 -32 1 -67 -1
-78 -6z"/>
</g>
</svg>
